<?xml version="1.0" encoding="UTF-8"?>
<svg width="200" height="200" viewBox="0 0 200 200" xmlns="http://www.w3.org/2000/svg">
  <!-- Background Circle -->
  <circle cx="100" cy="100" r="95" fill="#FFA000" stroke="#BF360C" stroke-width="6"/>
  
  <!-- Decorative Border -->
  <circle cx="100" cy="100" r="85" fill="none" stroke="#5D4037" stroke-width="3" stroke-dasharray="5,3"/>
  
  <!-- Shield Symbol -->
  <path d="M70,40 L130,40 L140,50 L140,90 C140,120 100,140 100,140 C100,140 60,120 60,90 L60,50 Z" fill="#795548" stroke="#4E342E" stroke-width="2"/>
  
  <!-- Sword Symbol - Representing Shivaji Maharaj -->
  <path d="M95,48 L105,48 L108,130 L92,130 Z" fill="#FFECB3" stroke="#5D4037" stroke-width="1"/>
  <path d="M88,130 L112,130 L105,150 L95,150 Z" fill="#FFECB3" stroke="#5D4037" stroke-width="1"/>
  
  <!-- Crown Symbol - Representing Royalty -->
  <path d="M75,35 L85,25 L95,35 L100,20 L105,35 L115,25 L125,35 L115,40 L85,40 Z" fill="#FF6F00" stroke="#E65100" stroke-width="1"/>
  
  <!-- Mustache - Iconic Symbol of Shivaji Maharaj -->
  <path d="M80,70 C90,65 95,75 100,75 C105,75 110,65 120,70 C110,80 100,80 100,80 C100,80 90,80 80,70 Z" fill="#4E342E"/>
  
  <!-- Tilak Symbol -->
  <circle cx="100" cy="55" r="5" fill="#D32F2F"/>
  
  <!-- Decorative Elements -->
  <circle cx="75" cy="60" r="3" fill="#FFECB3"/>
  <circle cx="125" cy="60" r="3" fill="#FFECB3"/>
  
  <!-- Text -->
  <text x="100" y="105" font-family="Arial, sans-serif" font-size="12" text-anchor="middle" fill="#FFFFFF" font-weight="bold">Shri Shivaji</text>
  <text x="100" y="122" font-family="Arial, sans-serif" font-size="12" text-anchor="middle" fill="#FFFFFF" font-weight="bold">Maharaj</text>
  <text x="100" y="140" font-family="Arial, sans-serif" font-size="10" text-anchor="middle" fill="#FFFFFF">Hospital</text>
</svg> 